<mxfile host="app.diagrams.net" modified="2021-03-30T09:04:12.270Z" agent="5.0 (Windows)" etag="OqDDLL9Akn3NrxsxQWS9" version="14.4.2" type="github">
  <diagram name="Page-1" id="2a216829-ef6e-dabb-86c1-c78162f3ba2b">
    <mxGraphModel dx="2370" dy="1318" grid="1" gridSize="10" guides="1" tooltips="1" connect="1" arrows="1" fold="1" page="1" pageScale="1" pageWidth="850" pageHeight="1100" background="#ffffff" math="0" shadow="0">
      <root>
        <mxCell id="0" />
        <mxCell id="1" parent="0" />
        <mxCell id="HmKzBmM31Yb5NOaNHqyW-23" value="Инициатор" style="swimlane;startSize=20;" vertex="1" parent="1">
          <mxGeometry x="10" y="50" width="140" height="330" as="geometry" />
        </mxCell>
        <mxCell id="HmKzBmM31Yb5NOaNHqyW-40" style="edgeStyle=orthogonalEdgeStyle;rounded=0;orthogonalLoop=1;jettySize=auto;html=1;exitX=0.5;exitY=0;exitDx=0;exitDy=0;entryX=0.5;entryY=1;entryDx=0;entryDy=0;" edge="1" parent="HmKzBmM31Yb5NOaNHqyW-23" source="7a84cebc1def654-1" target="HmKzBmM31Yb5NOaNHqyW-14">
          <mxGeometry relative="1" as="geometry" />
        </mxCell>
        <mxCell id="7a84cebc1def654-1" value="" style="shape=mxgraph.bpmn.shape;html=1;verticalLabelPosition=bottom;labelBackgroundColor=#ffffff;verticalAlign=top;perimeter=ellipsePerimeter;outline=standard;symbol=general;" parent="HmKzBmM31Yb5NOaNHqyW-23" vertex="1">
          <mxGeometry x="40" y="250" width="50" height="50" as="geometry" />
        </mxCell>
        <mxCell id="HmKzBmM31Yb5NOaNHqyW-14" value="&lt;div&gt;Определить тему совещания&lt;/div&gt;" style="shape=ext;rounded=1;html=1;whiteSpace=wrap;" vertex="1" parent="HmKzBmM31Yb5NOaNHqyW-23">
          <mxGeometry x="5" y="40" width="120" height="80" as="geometry" />
        </mxCell>
        <mxCell id="HmKzBmM31Yb5NOaNHqyW-29" style="edgeStyle=orthogonalEdgeStyle;rounded=0;orthogonalLoop=1;jettySize=auto;html=1;exitX=1;exitY=0.5;exitDx=0;exitDy=0;entryX=0;entryY=0.5;entryDx=0;entryDy=0;" edge="1" parent="1" source="HmKzBmM31Yb5NOaNHqyW-14" target="HmKzBmM31Yb5NOaNHqyW-15">
          <mxGeometry relative="1" as="geometry">
            <mxPoint x="170" y="130" as="targetPoint" />
          </mxGeometry>
        </mxCell>
        <mxCell id="HmKzBmM31Yb5NOaNHqyW-30" value="Секретарь совещания" style="swimlane;startSize=20;" vertex="1" parent="1">
          <mxGeometry x="150" y="50" width="760" height="330" as="geometry" />
        </mxCell>
        <mxCell id="HmKzBmM31Yb5NOaNHqyW-15" value="Согласовать время проведения с участниками совещания" style="shape=ext;rounded=1;html=1;whiteSpace=wrap;" vertex="1" parent="HmKzBmM31Yb5NOaNHqyW-30">
          <mxGeometry x="60" y="40" width="120" height="80" as="geometry" />
        </mxCell>
        <mxCell id="HmKzBmM31Yb5NOaNHqyW-46" value="Зарезервировать переговорную комнату" style="shape=ext;rounded=1;html=1;whiteSpace=wrap;" vertex="1" parent="HmKzBmM31Yb5NOaNHqyW-30">
          <mxGeometry x="250" y="40" width="120" height="80" as="geometry" />
        </mxCell>
        <mxCell id="HmKzBmM31Yb5NOaNHqyW-47" value="" style="edgeStyle=orthogonalEdgeStyle;rounded=0;orthogonalLoop=1;jettySize=auto;html=1;" edge="1" parent="HmKzBmM31Yb5NOaNHqyW-30" source="HmKzBmM31Yb5NOaNHqyW-15" target="HmKzBmM31Yb5NOaNHqyW-46">
          <mxGeometry relative="1" as="geometry" />
        </mxCell>
        <mxCell id="HmKzBmM31Yb5NOaNHqyW-48" value="Заказать необходимое оборудование" style="shape=ext;rounded=1;html=1;whiteSpace=wrap;" vertex="1" parent="HmKzBmM31Yb5NOaNHqyW-30">
          <mxGeometry x="430" y="40" width="120" height="80" as="geometry" />
        </mxCell>
        <mxCell id="HmKzBmM31Yb5NOaNHqyW-49" value="" style="edgeStyle=orthogonalEdgeStyle;rounded=0;orthogonalLoop=1;jettySize=auto;html=1;" edge="1" parent="HmKzBmM31Yb5NOaNHqyW-30" source="HmKzBmM31Yb5NOaNHqyW-46" target="HmKzBmM31Yb5NOaNHqyW-48">
          <mxGeometry relative="1" as="geometry" />
        </mxCell>
        <mxCell id="HmKzBmM31Yb5NOaNHqyW-50" value="Создать событие в календаре" style="shape=ext;rounded=1;html=1;whiteSpace=wrap;" vertex="1" parent="HmKzBmM31Yb5NOaNHqyW-30">
          <mxGeometry x="610" y="40" width="120" height="80" as="geometry" />
        </mxCell>
        <mxCell id="HmKzBmM31Yb5NOaNHqyW-51" value="" style="edgeStyle=orthogonalEdgeStyle;rounded=0;orthogonalLoop=1;jettySize=auto;html=1;" edge="1" parent="HmKzBmM31Yb5NOaNHqyW-30" source="HmKzBmM31Yb5NOaNHqyW-48" target="HmKzBmM31Yb5NOaNHqyW-50">
          <mxGeometry relative="1" as="geometry" />
        </mxCell>
        <mxCell id="HmKzBmM31Yb5NOaNHqyW-60" value="Нет" style="text;html=1;strokeColor=none;fillColor=none;align=center;verticalAlign=middle;whiteSpace=wrap;rounded=0;" vertex="1" parent="HmKzBmM31Yb5NOaNHqyW-30">
          <mxGeometry x="250" y="130" width="40" height="20" as="geometry" />
        </mxCell>
        <mxCell id="HmKzBmM31Yb5NOaNHqyW-61" value="" style="shape=mxgraph.bpmn.shape;html=1;verticalLabelPosition=bottom;labelBackgroundColor=#ffffff;verticalAlign=top;align=center;perimeter=ellipsePerimeter;outlineConnect=0;outline=end;symbol=general;" vertex="1" parent="HmKzBmM31Yb5NOaNHqyW-30">
          <mxGeometry x="100" y="210" width="60" height="60" as="geometry" />
        </mxCell>
        <mxCell id="HmKzBmM31Yb5NOaNHqyW-57" value="" style="edgeStyle=orthogonalEdgeStyle;rounded=0;orthogonalLoop=1;jettySize=auto;html=1;" edge="1" parent="1" source="HmKzBmM31Yb5NOaNHqyW-52" target="HmKzBmM31Yb5NOaNHqyW-56">
          <mxGeometry relative="1" as="geometry" />
        </mxCell>
        <mxCell id="HmKzBmM31Yb5NOaNHqyW-52" value="Оповестить участников совещания" style="shape=ext;rounded=1;html=1;whiteSpace=wrap;" vertex="1" parent="1">
          <mxGeometry x="760" y="250" width="120" height="80" as="geometry" />
        </mxCell>
        <mxCell id="HmKzBmM31Yb5NOaNHqyW-53" value="" style="edgeStyle=orthogonalEdgeStyle;rounded=0;orthogonalLoop=1;jettySize=auto;html=1;" edge="1" parent="1" source="HmKzBmM31Yb5NOaNHqyW-50" target="HmKzBmM31Yb5NOaNHqyW-52">
          <mxGeometry relative="1" as="geometry" />
        </mxCell>
        <mxCell id="HmKzBmM31Yb5NOaNHqyW-59" value="" style="edgeStyle=orthogonalEdgeStyle;rounded=0;orthogonalLoop=1;jettySize=auto;html=1;exitX=0.5;exitY=0;exitDx=0;exitDy=0;" edge="1" parent="1" source="HmKzBmM31Yb5NOaNHqyW-56">
          <mxGeometry relative="1" as="geometry">
            <mxPoint x="270" y="170" as="targetPoint" />
          </mxGeometry>
        </mxCell>
        <mxCell id="HmKzBmM31Yb5NOaNHqyW-63" value="" style="edgeStyle=orthogonalEdgeStyle;rounded=0;orthogonalLoop=1;jettySize=auto;html=1;" edge="1" parent="1" source="HmKzBmM31Yb5NOaNHqyW-56" target="HmKzBmM31Yb5NOaNHqyW-62">
          <mxGeometry relative="1" as="geometry" />
        </mxCell>
        <mxCell id="HmKzBmM31Yb5NOaNHqyW-56" value="Совещание состоялось" style="rhombus;whiteSpace=wrap;html=1;rounded=1;" vertex="1" parent="1">
          <mxGeometry x="560" y="240" width="100" height="100" as="geometry" />
        </mxCell>
        <mxCell id="HmKzBmM31Yb5NOaNHqyW-62" value="Подготовить протокол совещания" style="whiteSpace=wrap;html=1;rounded=1;" vertex="1" parent="1">
          <mxGeometry x="370" y="260" width="120" height="60" as="geometry" />
        </mxCell>
        <mxCell id="HmKzBmM31Yb5NOaNHqyW-65" value="" style="endArrow=classic;html=1;exitX=0;exitY=0.5;exitDx=0;exitDy=0;" edge="1" parent="1" source="HmKzBmM31Yb5NOaNHqyW-62">
          <mxGeometry width="50" height="50" relative="1" as="geometry">
            <mxPoint x="420" y="340" as="sourcePoint" />
            <mxPoint x="310" y="290" as="targetPoint" />
          </mxGeometry>
        </mxCell>
      </root>
    </mxGraphModel>
  </diagram>
</mxfile>
